<?xml version="1.0" encoding="UTF-8" standalone="no"?>
<!DOCTYPE svg PUBLIC "-//W3C//DTD SVG 1.1//EN" "http://www.w3.org/Graphics/SVG/1.1/DTD/svg11.dtd">
<!-- Generated by graphviz version 2.40.1 (20161225.0304)
 -->
<!-- Title: G Pages: 1 -->
<svg width="709pt" height="714pt" viewBox="0.00 0.00 709.12 713.79" xmlns="http://www.w3.org/2000/svg" xmlns:xlink="http://www.w3.org/1999/xlink">
<g id="graph0" class="graph" transform="scale(1 1) rotate(0) translate(4 709.7877)">
<title>G</title>
<polygon fill="#ffffff" stroke="transparent" points="-4,4 -4,-709.7877 705.1206,-709.7877 705.1206,4 -4,4"/>
<!-- prot; 0 -->
<g id="node1" class="node">
<title>prot; 0</title>
<ellipse fill="none" stroke="#000000" cx="390.4858" cy="-687.7877" rx="36.5366" ry="18"/>
<text text-anchor="middle" x="390.4858" y="-683.5877" font-family="Times,serif" font-size="14.00" fill="#000000">prot; 0</text>
</g>
<!-- ant;\n 4 -->
<g id="node2" class="node">
<title>ant;\n 4</title>
<ellipse fill="none" stroke="#000000" cx="309.4858" cy="-587.5721" rx="27" ry="29.3315"/>
<text text-anchor="middle" x="309.4858" y="-591.7721" font-family="Times,serif" font-size="14.00" fill="#000000">ant;</text>
<text text-anchor="middle" x="309.4858" y="-574.9721" font-family="Times,serif" font-size="14.00" fill="#000000"> 4</text>
</g>
<!-- prot; 0&#45;&gt;ant;\n 4 -->
<g id="edge1" class="edge">
<title>prot; 0-&gt;ant;\n 4</title>
<path fill="none" stroke="#000000" d="M376.7452,-670.7875C365.1086,-656.3903 348.1372,-635.3927 334.154,-618.0924"/>
<polygon fill="#000000" stroke="#000000" points="336.5742,-615.5187 327.5661,-609.9416 331.1301,-619.919 336.5742,-615.5187"/>
<text text-anchor="middle" x="362.9858" y="-639.1877" font-family="Times,serif" font-size="14.00" fill="#000000">4</text>
</g>
<!-- ant;\n 5 -->
<g id="node3" class="node">
<title>ant;\n 5</title>
<ellipse fill="none" stroke="#000000" cx="390.4858" cy="-587.5721" rx="27" ry="29.3315"/>
<text text-anchor="middle" x="390.4858" y="-591.7721" font-family="Times,serif" font-size="14.00" fill="#000000">ant;</text>
<text text-anchor="middle" x="390.4858" y="-574.9721" font-family="Times,serif" font-size="14.00" fill="#000000"> 5</text>
</g>
<!-- prot; 0&#45;&gt;ant;\n 5 -->
<g id="edge2" class="edge">
<title>prot; 0-&gt;ant;\n 5</title>
<path fill="none" stroke="#000000" d="M390.4858,-669.4066C390.4858,-657.6753 390.4858,-642.0026 390.4858,-627.5137"/>
<polygon fill="#000000" stroke="#000000" points="393.9859,-627.246 390.4858,-617.246 386.9859,-627.246 393.9859,-627.246"/>
<text text-anchor="middle" x="393.9858" y="-639.1877" font-family="Times,serif" font-size="14.00" fill="#000000">5</text>
</g>
<!-- ant;\n 6 -->
<g id="node4" class="node">
<title>ant;\n 6</title>
<ellipse fill="none" stroke="#000000" cx="471.4858" cy="-587.5721" rx="27" ry="29.3315"/>
<text text-anchor="middle" x="471.4858" y="-591.7721" font-family="Times,serif" font-size="14.00" fill="#000000">ant;</text>
<text text-anchor="middle" x="471.4858" y="-574.9721" font-family="Times,serif" font-size="14.00" fill="#000000"> 6</text>
</g>
<!-- prot; 0&#45;&gt;ant;\n 6 -->
<g id="edge3" class="edge">
<title>prot; 0-&gt;ant;\n 6</title>
<path fill="none" stroke="#000000" d="M404.2263,-670.7875C415.8629,-656.3903 432.8344,-635.3927 446.8175,-618.0924"/>
<polygon fill="#000000" stroke="#000000" points="449.8414,-619.919 453.4054,-609.9416 444.3973,-615.5187 449.8414,-619.919"/>
<text text-anchor="middle" x="433.9858" y="-639.1877" font-family="Times,serif" font-size="14.00" fill="#000000">6</text>
</g>
<!-- prot; \n 8 -->
<g id="node5" class="node">
<title>prot; \n 8</title>
<ellipse fill="none" stroke="#000000" cx="214.4858" cy="-475.9408" rx="32.4715" ry="29.3315"/>
<text text-anchor="middle" x="214.4858" y="-480.1408" font-family="Times,serif" font-size="14.00" fill="#000000">prot; </text>
<text text-anchor="middle" x="214.4858" y="-463.3408" font-family="Times,serif" font-size="14.00" fill="#000000"> 8</text>
</g>
<!-- ant;\n 4&#45;&gt;prot; \n 8 -->
<g id="edge4" class="edge">
<title>ant;\n 4-&gt;prot; \n 8</title>
<path fill="none" stroke="#000000" d="M290.9433,-565.7834C276.7689,-549.1276 257.0315,-525.9348 241.1611,-507.286"/>
<polygon fill="#000000" stroke="#000000" points="243.7702,-504.9515 234.6237,-499.6042 238.4393,-509.4882 243.7702,-504.9515"/>
<text text-anchor="middle" x="270.9858" y="-527.5564" font-family="Times,serif" font-size="14.00" fill="#000000">4</text>
</g>
<!-- prot; \n 9 -->
<g id="node6" class="node">
<title>prot; \n 9</title>
<ellipse fill="none" stroke="#000000" cx="300.4858" cy="-475.9408" rx="32.4715" ry="29.3315"/>
<text text-anchor="middle" x="300.4858" y="-480.1408" font-family="Times,serif" font-size="14.00" fill="#000000">prot; </text>
<text text-anchor="middle" x="300.4858" y="-463.3408" font-family="Times,serif" font-size="14.00" fill="#000000"> 9</text>
</g>
<!-- ant;\n 4&#45;&gt;prot; \n 9 -->
<g id="edge5" class="edge">
<title>ant;\n 4-&gt;prot; \n 9</title>
<path fill="none" stroke="#000000" d="M305.4096,-558.2704C304.681,-552.2866 303.9934,-546.0258 303.4858,-540.1564 302.796,-532.1819 302.2573,-523.6355 301.8391,-515.4637"/>
<polygon fill="#000000" stroke="#000000" points="305.3312,-515.2112 301.3715,-505.3841 298.3388,-515.5356 305.3312,-515.2112"/>
<text text-anchor="middle" x="306.9858" y="-527.5564" font-family="Times,serif" font-size="14.00" fill="#000000">5</text>
</g>
<!-- prot; \n 10 -->
<g id="node7" class="node">
<title>prot; \n 10</title>
<ellipse fill="none" stroke="#000000" cx="390.4858" cy="-475.9408" rx="32.4715" ry="29.3315"/>
<text text-anchor="middle" x="390.4858" y="-480.1408" font-family="Times,serif" font-size="14.00" fill="#000000">prot; </text>
<text text-anchor="middle" x="390.4858" y="-463.3408" font-family="Times,serif" font-size="14.00" fill="#000000"> 10</text>
</g>
<!-- ant;\n 4&#45;&gt;prot; \n 10 -->
<g id="edge6" class="edge">
<title>ant;\n 4-&gt;prot; \n 10</title>
<path fill="none" stroke="#000000" d="M326.269,-564.442C337.8971,-548.4165 353.5526,-526.8408 366.4945,-509.0047"/>
<polygon fill="#000000" stroke="#000000" points="369.5602,-510.7392 372.6003,-500.5899 363.8945,-506.6282 369.5602,-510.7392"/>
<text text-anchor="middle" x="357.9858" y="-527.5564" font-family="Times,serif" font-size="14.00" fill="#000000">6</text>
</g>
<!-- ant;\n 5&#45;&gt;prot; \n 9 -->
<g id="edge7" class="edge">
<title>ant;\n 5-&gt;prot; \n 9</title>
<path fill="none" stroke="#000000" d="M367.4983,-571.8482C356.2764,-563.3794 343.1481,-552.2078 333.4858,-540.1564 326.8995,-531.9418 321.0825,-522.2041 316.2391,-512.8274"/>
<polygon fill="#000000" stroke="#000000" points="319.2773,-511.074 311.7277,-503.6408 312.9941,-514.1597 319.2773,-511.074"/>
<text text-anchor="middle" x="336.9858" y="-527.5564" font-family="Times,serif" font-size="14.00" fill="#000000">4</text>
</g>
<!-- ant;\n 5&#45;&gt;prot; \n 10 -->
<g id="edge8" class="edge">
<title>ant;\n 5-&gt;prot; \n 10</title>
<path fill="none" stroke="#000000" d="M390.4858,-557.95C390.4858,-545.082 390.4858,-529.8118 390.4858,-515.957"/>
<polygon fill="#000000" stroke="#000000" points="393.9859,-515.7012 390.4858,-505.7013 386.9859,-515.7013 393.9859,-515.7012"/>
<text text-anchor="middle" x="393.9858" y="-527.5564" font-family="Times,serif" font-size="14.00" fill="#000000">5</text>
</g>
<!-- prot; \n 11 -->
<g id="node8" class="node">
<title>prot; \n 11</title>
<ellipse fill="none" stroke="#000000" cx="480.4858" cy="-475.9408" rx="32.4715" ry="29.3315"/>
<text text-anchor="middle" x="480.4858" y="-480.1408" font-family="Times,serif" font-size="14.00" fill="#000000">prot; </text>
<text text-anchor="middle" x="480.4858" y="-463.3408" font-family="Times,serif" font-size="14.00" fill="#000000"> 11</text>
</g>
<!-- ant;\n 5&#45;&gt;prot; \n 11 -->
<g id="edge9" class="edge">
<title>ant;\n 5-&gt;prot; \n 11</title>
<path fill="none" stroke="#000000" d="M408.4823,-565.2501C421.7387,-548.8076 439.9563,-526.2114 454.75,-507.8621"/>
<polygon fill="#000000" stroke="#000000" points="457.7242,-509.7494 461.276,-499.7676 452.2747,-505.3558 457.7242,-509.7494"/>
<text text-anchor="middle" x="443.9858" y="-527.5564" font-family="Times,serif" font-size="14.00" fill="#000000">6</text>
</g>
<!-- ant;\n 6&#45;&gt;prot; \n 10 -->
<g id="edge10" class="edge">
<title>ant;\n 6-&gt;prot; \n 10</title>
<path fill="none" stroke="#000000" d="M449.8954,-569.0324C441.0436,-560.7593 431.1092,-550.5441 423.4858,-540.1564 417.3118,-531.7439 411.6636,-522.0118 406.852,-512.7081"/>
<polygon fill="#000000" stroke="#000000" points="409.916,-511.0089 402.3308,-503.6119 403.6476,-514.1246 409.916,-511.0089"/>
<text text-anchor="middle" x="426.9858" y="-527.5564" font-family="Times,serif" font-size="14.00" fill="#000000">4</text>
</g>
<!-- ant;\n 6&#45;&gt;prot; \n 11 -->
<g id="edge11" class="edge">
<title>ant;\n 6-&gt;prot; \n 11</title>
<path fill="none" stroke="#000000" d="M473.8504,-558.2423C474.8963,-545.2701 476.1424,-529.8131 477.2709,-515.816"/>
<polygon fill="#000000" stroke="#000000" points="480.7906,-515.7112 478.1057,-505.4623 473.8133,-515.1486 480.7906,-515.7112"/>
<text text-anchor="middle" x="479.9858" y="-527.5564" font-family="Times,serif" font-size="14.00" fill="#000000">5</text>
</g>
<!-- prot; \n 12 -->
<g id="node9" class="node">
<title>prot; \n 12</title>
<ellipse fill="none" stroke="#000000" cx="588.4858" cy="-475.9408" rx="32.4715" ry="29.3315"/>
<text text-anchor="middle" x="588.4858" y="-480.1408" font-family="Times,serif" font-size="14.00" fill="#000000">prot; </text>
<text text-anchor="middle" x="588.4858" y="-463.3408" font-family="Times,serif" font-size="14.00" fill="#000000"> 12</text>
</g>
<!-- ant;\n 6&#45;&gt;prot; \n 12 -->
<g id="edge12" class="edge">
<title>ant;\n 6-&gt;prot; \n 12</title>
<path fill="none" stroke="#000000" d="M491.8656,-568.1274C510.2917,-550.5468 537.6546,-524.4394 558.5621,-504.4913"/>
<polygon fill="#000000" stroke="#000000" points="561.1253,-506.8833 565.9443,-497.4479 556.2931,-501.8187 561.1253,-506.8833"/>
<text text-anchor="middle" x="539.9858" y="-527.5564" font-family="Times,serif" font-size="14.00" fill="#000000">6</text>
</g>
<!-- ant; \n 12 -->
<g id="node10" class="node">
<title>ant; \n 12</title>
<ellipse fill="none" stroke="#000000" cx="128.4858" cy="-364.3095" rx="28.7703" ry="29.3315"/>
<text text-anchor="middle" x="128.4858" y="-368.5095" font-family="Times,serif" font-size="14.00" fill="#000000">ant; </text>
<text text-anchor="middle" x="128.4858" y="-351.7095" font-family="Times,serif" font-size="14.00" fill="#000000"> 12</text>
</g>
<!-- prot; \n 8&#45;&gt;ant; \n 12 -->
<g id="edge13" class="edge">
<title>prot; \n 8-&gt;ant; \n 12</title>
<path fill="none" stroke="#000000" d="M195.825,-451.7185C183.2587,-435.4068 166.5571,-413.7276 152.9312,-396.0406"/>
<polygon fill="#000000" stroke="#000000" points="155.3963,-393.5054 146.5207,-387.7196 149.851,-397.7774 155.3963,-393.5054"/>
<text text-anchor="middle" x="180.9858" y="-415.9251" font-family="Times,serif" font-size="14.00" fill="#000000">4</text>
</g>
<!-- ant; \n 13 -->
<g id="node11" class="node">
<title>ant; \n 13</title>
<ellipse fill="none" stroke="#000000" cx="210.4858" cy="-364.3095" rx="28.7703" ry="29.3315"/>
<text text-anchor="middle" x="210.4858" y="-368.5095" font-family="Times,serif" font-size="14.00" fill="#000000">ant; </text>
<text text-anchor="middle" x="210.4858" y="-351.7095" font-family="Times,serif" font-size="14.00" fill="#000000"> 13</text>
</g>
<!-- prot; \n 8&#45;&gt;ant; \n 13 -->
<g id="edge14" class="edge">
<title>prot; \n 8-&gt;ant; \n 13</title>
<path fill="none" stroke="#000000" d="M213.4243,-446.3187C212.9632,-433.4507 212.4161,-418.1805 211.9196,-404.3257"/>
<polygon fill="#000000" stroke="#000000" points="215.4081,-403.9382 211.5521,-394.07 208.4126,-404.1889 215.4081,-403.9382"/>
<text text-anchor="middle" x="216.9858" y="-415.9251" font-family="Times,serif" font-size="14.00" fill="#000000">5</text>
</g>
<!-- ant; \n 14 -->
<g id="node12" class="node">
<title>ant; \n 14</title>
<ellipse fill="none" stroke="#000000" cx="297.4858" cy="-364.3095" rx="28.7703" ry="29.3315"/>
<text text-anchor="middle" x="297.4858" y="-368.5095" font-family="Times,serif" font-size="14.00" fill="#000000">ant; </text>
<text text-anchor="middle" x="297.4858" y="-351.7095" font-family="Times,serif" font-size="14.00" fill="#000000"> 14</text>
</g>
<!-- prot; \n 8&#45;&gt;ant; \n 14 -->
<g id="edge15" class="edge">
<title>prot; \n 8-&gt;ant; \n 14</title>
<path fill="none" stroke="#000000" d="M232.7005,-451.4428C244.7571,-435.2272 260.6906,-413.7974 273.7387,-396.2482"/>
<polygon fill="#000000" stroke="#000000" points="276.7248,-398.0979 279.8828,-387.9847 271.1074,-393.9213 276.7248,-398.0979"/>
<text text-anchor="middle" x="263.9858" y="-415.9251" font-family="Times,serif" font-size="14.00" fill="#000000">6</text>
</g>
<!-- prot; \n 9&#45;&gt;ant; \n 13 -->
<g id="edge16" class="edge">
<title>prot; \n 9-&gt;ant; \n 13</title>
<path fill="none" stroke="#000000" d="M274.6562,-458.0444C264.1124,-449.8801 252.3429,-439.5722 243.4858,-428.5251 236.8407,-420.2371 230.9787,-410.3988 226.1096,-400.945"/>
<polygon fill="#000000" stroke="#000000" points="229.1197,-399.1336 221.5791,-391.6911 222.8327,-402.2115 229.1197,-399.1336"/>
<text text-anchor="middle" x="246.9858" y="-415.9251" font-family="Times,serif" font-size="14.00" fill="#000000">4</text>
</g>
<!-- prot; \n 9&#45;&gt;ant; \n 14 -->
<g id="edge17" class="edge">
<title>prot; \n 9-&gt;ant; \n 14</title>
<path fill="none" stroke="#000000" d="M299.6897,-446.3187C299.3439,-433.4507 298.9335,-418.1805 298.5612,-404.3257"/>
<polygon fill="#000000" stroke="#000000" points="302.053,-403.9723 298.2855,-394.07 295.0555,-404.1604 302.053,-403.9723"/>
<text text-anchor="middle" x="301.9858" y="-415.9251" font-family="Times,serif" font-size="14.00" fill="#000000">5</text>
</g>
<!-- ant; \n 15 -->
<g id="node13" class="node">
<title>ant; \n 15</title>
<ellipse fill="none" stroke="#000000" cx="389.4858" cy="-364.3095" rx="28.7703" ry="29.3315"/>
<text text-anchor="middle" x="389.4858" y="-368.5095" font-family="Times,serif" font-size="14.00" fill="#000000">ant; </text>
<text text-anchor="middle" x="389.4858" y="-351.7095" font-family="Times,serif" font-size="14.00" fill="#000000"> 15</text>
</g>
<!-- prot; \n 9&#45;&gt;ant; \n 15 -->
<g id="edge18" class="edge">
<title>prot; \n 9-&gt;ant; \n 15</title>
<path fill="none" stroke="#000000" d="M319.8379,-451.8357C325.823,-444.3694 332.433,-436.1118 338.4858,-428.5251 347.103,-417.7239 356.5166,-405.8828 364.8842,-395.3427"/>
<polygon fill="#000000" stroke="#000000" points="367.8608,-397.2223 371.3354,-387.2135 362.3775,-392.871 367.8608,-397.2223"/>
<text text-anchor="middle" x="353.9858" y="-415.9251" font-family="Times,serif" font-size="14.00" fill="#000000">6</text>
</g>
<!-- prot; \n 10&#45;&gt;ant; \n 14 -->
<g id="edge19" class="edge">
<title>prot; \n 10-&gt;ant; \n 14</title>
<path fill="none" stroke="#000000" d="M364.5632,-457.6621C354.1249,-449.5079 342.4594,-439.3109 333.4858,-428.5251 326.3619,-419.9627 319.9164,-409.7882 314.5128,-400.0914"/>
<polygon fill="#000000" stroke="#000000" points="317.4609,-398.1817 309.6633,-391.0091 311.2861,-401.4789 317.4609,-398.1817"/>
<text text-anchor="middle" x="336.9858" y="-415.9251" font-family="Times,serif" font-size="14.00" fill="#000000">4</text>
</g>
<!-- prot; \n 10&#45;&gt;ant; \n 15 -->
<g id="edge20" class="edge">
<title>prot; \n 10-&gt;ant; \n 15</title>
<path fill="none" stroke="#000000" d="M390.2204,-446.3187C390.1051,-433.4507 389.9683,-418.1805 389.8442,-404.3257"/>
<polygon fill="#000000" stroke="#000000" points="393.3419,-404.0382 389.7524,-394.07 386.3422,-404.101 393.3419,-404.0382"/>
<text text-anchor="middle" x="392.9858" y="-415.9251" font-family="Times,serif" font-size="14.00" fill="#000000">5</text>
</g>
<!-- ant; \n 16 -->
<g id="node14" class="node">
<title>ant; \n 16</title>
<ellipse fill="none" stroke="#000000" cx="486.4858" cy="-364.3095" rx="28.7703" ry="29.3315"/>
<text text-anchor="middle" x="486.4858" y="-368.5095" font-family="Times,serif" font-size="14.00" fill="#000000">ant; </text>
<text text-anchor="middle" x="486.4858" y="-351.7095" font-family="Times,serif" font-size="14.00" fill="#000000"> 16</text>
</g>
<!-- prot; \n 10&#45;&gt;ant; \n 16 -->
<g id="edge21" class="edge">
<title>prot; \n 10-&gt;ant; \n 16</title>
<path fill="none" stroke="#000000" d="M411.1133,-452.8933C417.9572,-445.1829 425.5879,-436.5171 432.4858,-428.5251 441.9661,-417.5411 452.2444,-405.3827 461.2643,-394.6268"/>
<polygon fill="#000000" stroke="#000000" points="464.1492,-396.633 467.8825,-386.7177 458.7808,-392.1407 464.1492,-396.633"/>
<text text-anchor="middle" x="448.9858" y="-415.9251" font-family="Times,serif" font-size="14.00" fill="#000000">6</text>
</g>
<!-- prot; \n 11&#45;&gt;ant; \n 15 -->
<g id="edge22" class="edge">
<title>prot; \n 11-&gt;ant; \n 15</title>
<path fill="none" stroke="#000000" d="M455.2318,-457.2931C445.2365,-449.1546 434.1015,-439.0682 425.4858,-428.5251 418.4376,-419.9003 412.0162,-409.7058 406.6116,-400.0099"/>
<polygon fill="#000000" stroke="#000000" points="409.5588,-398.0992 401.7542,-390.9341 403.3871,-401.4024 409.5588,-398.0992"/>
<text text-anchor="middle" x="428.9858" y="-415.9251" font-family="Times,serif" font-size="14.00" fill="#000000">4</text>
</g>
<!-- prot; \n 11&#45;&gt;ant; \n 16 -->
<g id="edge23" class="edge">
<title>prot; \n 11-&gt;ant; \n 16</title>
<path fill="none" stroke="#000000" d="M482.0779,-446.3187C482.7751,-433.3478 483.6034,-417.936 484.3528,-403.9935"/>
<polygon fill="#000000" stroke="#000000" points="487.8652,-403.8561 484.907,-393.6826 480.8752,-403.4803 487.8652,-403.8561"/>
<text text-anchor="middle" x="486.9858" y="-415.9251" font-family="Times,serif" font-size="14.00" fill="#000000">5</text>
</g>
<!-- ant; \n 17 -->
<g id="node15" class="node">
<title>ant; \n 17</title>
<ellipse fill="none" stroke="#000000" cx="593.4858" cy="-252.6782" rx="28.7703" ry="29.3315"/>
<text text-anchor="middle" x="593.4858" y="-256.8782" font-family="Times,serif" font-size="14.00" fill="#000000">ant; </text>
<text text-anchor="middle" x="593.4858" y="-240.0782" font-family="Times,serif" font-size="14.00" fill="#000000"> 17</text>
</g>
<!-- prot; \n 11&#45;&gt;ant; \n 17 -->
<g id="edge24" class="edge">
<title>prot; \n 11-&gt;ant; \n 17</title>
<path fill="none" stroke="#000000" d="M509.2218,-461.7169C522.6796,-453.6951 537.8354,-442.4691 547.4858,-428.5251 562.73,-406.4984 577.9862,-336.3473 586.5339,-291.5902"/>
<polygon fill="#000000" stroke="#000000" points="589.9988,-292.1025 588.406,-281.6281 583.1192,-290.8096 589.9988,-292.1025"/>
<text text-anchor="middle" x="579.9858" y="-360.1095" font-family="Times,serif" font-size="14.00" fill="#000000">6</text>
</g>
<!-- prot; \n 12&#45;&gt;ant; \n 16 -->
<g id="edge25" class="edge">
<title>prot; \n 12-&gt;ant; \n 16</title>
<path fill="none" stroke="#000000" d="M567.5984,-453.0811C551.8908,-435.8904 530.2459,-412.2017 513.266,-393.6185"/>
<polygon fill="#000000" stroke="#000000" points="515.6348,-391.0222 506.3055,-386.0007 510.4671,-395.744 515.6348,-391.0222"/>
<text text-anchor="middle" x="546.9858" y="-415.9251" font-family="Times,serif" font-size="14.00" fill="#000000">4</text>
</g>
<!-- prot; \n 12&#45;&gt;ant; \n 17 -->
<g id="edge26" class="edge">
<title>prot; \n 12-&gt;ant; \n 17</title>
<path fill="none" stroke="#000000" d="M589.1497,-446.2932C590.0375,-406.6507 591.6138,-336.2658 592.6015,-292.1635"/>
<polygon fill="#000000" stroke="#000000" points="596.1021,-292.1687 592.827,-282.0928 589.1039,-292.0119 596.1021,-292.1687"/>
<text text-anchor="middle" x="594.9858" y="-360.1095" font-family="Times,serif" font-size="14.00" fill="#000000">5</text>
</g>
<!-- ant; \n 18 -->
<g id="node16" class="node">
<title>ant; \n 18</title>
<ellipse fill="none" stroke="#000000" cx="672.4858" cy="-141.0469" rx="28.7703" ry="29.3315"/>
<text text-anchor="middle" x="672.4858" y="-145.2469" font-family="Times,serif" font-size="14.00" fill="#000000">ant; </text>
<text text-anchor="middle" x="672.4858" y="-128.4469" font-family="Times,serif" font-size="14.00" fill="#000000"> 18</text>
</g>
<!-- prot; \n 12&#45;&gt;ant; \n 18 -->
<g id="edge27" class="edge">
<title>prot; \n 12-&gt;ant; \n 18</title>
<path fill="none" stroke="#000000" d="M597.7783,-447.7065C599.7473,-441.4175 601.7525,-434.7643 603.4858,-428.5251 628.0089,-340.2517 651.8794,-235.3158 664.0853,-179.8681"/>
<polygon fill="#000000" stroke="#000000" points="667.5738,-180.2994 666.2969,-169.7818 660.7362,-178.8001 667.5738,-180.2994"/>
<text text-anchor="middle" x="638.9858" y="-304.2939" font-family="Times,serif" font-size="14.00" fill="#000000">6</text>
</g>
<!-- prot; \n 16 -->
<g id="node17" class="node">
<title>prot; \n 16</title>
<ellipse fill="none" stroke="#000000" cx="32.4858" cy="-252.6782" rx="32.4715" ry="29.3315"/>
<text text-anchor="middle" x="32.4858" y="-256.8782" font-family="Times,serif" font-size="14.00" fill="#000000">prot; </text>
<text text-anchor="middle" x="32.4858" y="-240.0782" font-family="Times,serif" font-size="14.00" fill="#000000"> 16</text>
</g>
<!-- ant; \n 12&#45;&gt;prot; \n 16 -->
<g id="edge28" class="edge">
<title>ant; \n 12-&gt;prot; \n 16</title>
<path fill="none" stroke="#000000" d="M109.5192,-342.2547C95.1754,-325.5753 75.2908,-302.4531 59.3173,-283.8787"/>
<polygon fill="#000000" stroke="#000000" points="61.9126,-281.5286 52.7386,-276.2287 56.6052,-286.0928 61.9126,-281.5286"/>
<text text-anchor="middle" x="89.9858" y="-304.2939" font-family="Times,serif" font-size="14.00" fill="#000000">4</text>
</g>
<!-- prot; \n 17 -->
<g id="node18" class="node">
<title>prot; \n 17</title>
<ellipse fill="none" stroke="#000000" cx="115.4858" cy="-252.6782" rx="32.4715" ry="29.3315"/>
<text text-anchor="middle" x="115.4858" y="-256.8782" font-family="Times,serif" font-size="14.00" fill="#000000">prot; </text>
<text text-anchor="middle" x="115.4858" y="-240.0782" font-family="Times,serif" font-size="14.00" fill="#000000"> 17</text>
</g>
<!-- ant; \n 12&#45;&gt;prot; \n 17 -->
<g id="edge29" class="edge">
<title>ant; \n 12-&gt;prot; \n 17</title>
<path fill="none" stroke="#000000" d="M121.6564,-335.6004C120.4134,-329.4588 119.2653,-322.9856 118.4858,-316.8939 117.4698,-308.9543 116.7876,-300.4233 116.332,-292.2554"/>
<polygon fill="#000000" stroke="#000000" points="119.8242,-292.0039 115.8679,-282.1755 112.8316,-292.326 119.8242,-292.0039"/>
<text text-anchor="middle" x="121.9858" y="-304.2939" font-family="Times,serif" font-size="14.00" fill="#000000">5</text>
</g>
<!-- prot; \n 18 -->
<g id="node19" class="node">
<title>prot; \n 18</title>
<ellipse fill="none" stroke="#000000" cx="198.4858" cy="-252.6782" rx="32.4715" ry="29.3315"/>
<text text-anchor="middle" x="198.4858" y="-256.8782" font-family="Times,serif" font-size="14.00" fill="#000000">prot; </text>
<text text-anchor="middle" x="198.4858" y="-240.0782" font-family="Times,serif" font-size="14.00" fill="#000000"> 18</text>
</g>
<!-- ant; \n 12&#45;&gt;prot; \n 18 -->
<g id="edge30" class="edge">
<title>ant; \n 12-&gt;prot; \n 18</title>
<path fill="none" stroke="#000000" d="M144.021,-339.5349C153.6935,-324.1099 166.2741,-304.0472 176.9071,-287.0904"/>
<polygon fill="#000000" stroke="#000000" points="179.9168,-288.8788 182.2642,-278.5473 173.9863,-285.16 179.9168,-288.8788"/>
<text text-anchor="middle" x="171.9858" y="-304.2939" font-family="Times,serif" font-size="14.00" fill="#000000">6</text>
</g>
<!-- ant; \n 13&#45;&gt;prot; \n 17 -->
<g id="edge31" class="edge">
<title>ant; \n 13-&gt;prot; \n 17</title>
<path fill="none" stroke="#000000" d="M185.8939,-348.8186C173.8868,-340.4092 159.8366,-329.2204 149.4858,-316.8939 142.6716,-308.779 136.6685,-299.0757 131.678,-289.7"/>
<polygon fill="#000000" stroke="#000000" points="134.6657,-287.8519 127.0324,-280.5045 128.4178,-291.0084 134.6657,-287.8519"/>
<text text-anchor="middle" x="152.9858" y="-304.2939" font-family="Times,serif" font-size="14.00" fill="#000000">4</text>
</g>
<!-- ant; \n 13&#45;&gt;prot; \n 18 -->
<g id="edge32" class="edge">
<title>ant; \n 13-&gt;prot; \n 18</title>
<path fill="none" stroke="#000000" d="M207.3329,-334.9797C205.9384,-322.0075 204.2769,-306.5506 202.7722,-292.5535"/>
<polygon fill="#000000" stroke="#000000" points="206.2081,-291.7683 201.6592,-282.1997 199.2482,-292.5165 206.2081,-291.7683"/>
<text text-anchor="middle" x="208.9858" y="-304.2939" font-family="Times,serif" font-size="14.00" fill="#000000">5</text>
</g>
<!-- prot; \n 19 -->
<g id="node20" class="node">
<title>prot; \n 19</title>
<ellipse fill="none" stroke="#000000" cx="281.4858" cy="-252.6782" rx="32.4715" ry="29.3315"/>
<text text-anchor="middle" x="281.4858" y="-256.8782" font-family="Times,serif" font-size="14.00" fill="#000000">prot; </text>
<text text-anchor="middle" x="281.4858" y="-240.0782" font-family="Times,serif" font-size="14.00" fill="#000000"> 19</text>
</g>
<!-- ant; \n 13&#45;&gt;prot; \n 19 -->
<g id="edge33" class="edge">
<title>ant; \n 13-&gt;prot; \n 19</title>
<path fill="none" stroke="#000000" d="M220.7554,-336.8129C225.6744,-325.0786 232.1066,-311.492 239.4858,-300.0939 243.3405,-294.1397 247.919,-288.1759 252.6118,-282.5853"/>
<polygon fill="#000000" stroke="#000000" points="255.5527,-284.5389 259.4982,-274.7061 250.2821,-279.9324 255.5527,-284.5389"/>
<text text-anchor="middle" x="242.9858" y="-304.2939" font-family="Times,serif" font-size="14.00" fill="#000000">6</text>
</g>
<!-- ant; \n 14&#45;&gt;prot; \n 18 -->
<g id="edge34" class="edge">
<title>ant; \n 14-&gt;prot; \n 18</title>
<path fill="none" stroke="#000000" d="M279.2794,-341.3495C269.2492,-328.9329 256.4408,-313.4493 244.4858,-300.0939 239.1072,-294.0852 233.2131,-287.8004 227.4923,-281.8442"/>
<polygon fill="#000000" stroke="#000000" points="229.8649,-279.2633 220.3906,-274.5212 224.8398,-284.1366 229.8649,-279.2633"/>
<text text-anchor="middle" x="260.9858" y="-304.2939" font-family="Times,serif" font-size="14.00" fill="#000000">4</text>
</g>
<!-- ant; \n 14&#45;&gt;prot; \n 19 -->
<g id="edge35" class="edge">
<title>ant; \n 14-&gt;prot; \n 19</title>
<path fill="none" stroke="#000000" d="M293.2819,-334.9797C291.4044,-321.8803 289.1638,-306.2472 287.1421,-292.1422"/>
<polygon fill="#000000" stroke="#000000" points="290.6005,-291.6019 285.717,-282.1997 283.6713,-292.5952 290.6005,-291.6019"/>
<text text-anchor="middle" x="292.9858" y="-304.2939" font-family="Times,serif" font-size="14.00" fill="#000000">5</text>
</g>
<!-- prot; \n 20 -->
<g id="node21" class="node">
<title>prot; \n 20</title>
<ellipse fill="none" stroke="#000000" cx="385.4858" cy="-252.6782" rx="32.4715" ry="29.3315"/>
<text text-anchor="middle" x="385.4858" y="-256.8782" font-family="Times,serif" font-size="14.00" fill="#000000">prot; </text>
<text text-anchor="middle" x="385.4858" y="-240.0782" font-family="Times,serif" font-size="14.00" fill="#000000"> 20</text>
</g>
<!-- ant; \n 14&#45;&gt;prot; \n 20 -->
<g id="edge36" class="edge">
<title>ant; \n 14-&gt;prot; \n 20</title>
<path fill="none" stroke="#000000" d="M315.7194,-341.1794C328.5546,-324.8975 345.9063,-302.8862 360.0939,-284.8888"/>
<polygon fill="#000000" stroke="#000000" points="362.9201,-286.9572 366.3623,-276.9371 357.4228,-282.6236 362.9201,-286.9572"/>
<text text-anchor="middle" x="349.9858" y="-304.2939" font-family="Times,serif" font-size="14.00" fill="#000000">6</text>
</g>
<!-- ant; \n 15&#45;&gt;prot; \n 19 -->
<g id="edge37" class="edge">
<title>ant; \n 15-&gt;prot; \n 19</title>
<path fill="none" stroke="#000000" d="M365.5039,-347.6153C354.0153,-339.0708 340.4137,-328.1197 329.4858,-316.8939 320.4595,-307.6216 311.6587,-296.6149 304.1101,-286.3564"/>
<polygon fill="#000000" stroke="#000000" points="306.7627,-284.0499 298.0862,-277.9697 301.0773,-288.1336 306.7627,-284.0499"/>
<text text-anchor="middle" x="332.9858" y="-304.2939" font-family="Times,serif" font-size="14.00" fill="#000000">4</text>
</g>
<!-- ant; \n 15&#45;&gt;prot; \n 20 -->
<g id="edge38" class="edge">
<title>ant; \n 15-&gt;prot; \n 20</title>
<path fill="none" stroke="#000000" d="M388.4243,-334.6874C387.9632,-321.8194 387.4161,-306.5492 386.9196,-292.6944"/>
<polygon fill="#000000" stroke="#000000" points="390.4081,-292.3069 386.5521,-282.4387 383.4126,-292.5576 390.4081,-292.3069"/>
<text text-anchor="middle" x="390.9858" y="-304.2939" font-family="Times,serif" font-size="14.00" fill="#000000">5</text>
</g>
<!-- remis -->
<g id="node22" class="node">
<title>remis</title>
<ellipse fill="none" stroke="#000000" cx="453.4858" cy="-141.0469" rx="32.4788" ry="18"/>
<text text-anchor="middle" x="453.4858" y="-136.8469" font-family="Times,serif" font-size="14.00" fill="#000000">remis</text>
</g>
<!-- ant; \n 15&#45;&gt;remis -->
<g id="edge39" class="edge">
<title>ant; \n 15-&gt;remis</title>
<path fill="none" stroke="#000000" d="M413.4052,-347.8715C423.2335,-339.7595 433.6583,-329.0916 439.4858,-316.8939 462.3375,-269.0612 460.6874,-205.5195 457.2219,-169.38"/>
<polygon fill="#000000" stroke="#000000" points="460.6646,-168.6591 456.1133,-159.0917 453.7049,-169.4091 460.6646,-168.6591"/>
<text text-anchor="middle" x="461.9858" y="-248.4782" font-family="Times,serif" font-size="14.00" fill="#000000">6</text>
</g>
<!-- ant; \n 16&#45;&gt;prot; \n 20 -->
<g id="edge40" class="edge">
<title>ant; \n 16-&gt;prot; \n 20</title>
<path fill="none" stroke="#000000" d="M466.7722,-342.5209C451.5017,-325.643 430.1579,-302.0526 413.1731,-283.28"/>
<polygon fill="#000000" stroke="#000000" points="415.4958,-280.6303 406.1912,-275.5632 410.305,-285.3267 415.4958,-280.6303"/>
<text text-anchor="middle" x="444.9858" y="-304.2939" font-family="Times,serif" font-size="14.00" fill="#000000">4</text>
</g>
<!-- ant; \n 16&#45;&gt;remis -->
<g id="edge41" class="edge">
<title>ant; \n 16-&gt;remis</title>
<path fill="none" stroke="#000000" d="M483.7483,-334.9225C480.2688,-299.8917 473.6007,-239.6536 464.4858,-188.4626 463.3659,-182.1734 461.9483,-175.4641 460.5064,-169.1311"/>
<polygon fill="#000000" stroke="#000000" points="463.811,-167.8962 458.1051,-158.9691 456.9986,-169.506 463.811,-167.8962"/>
<text text-anchor="middle" x="480.9858" y="-248.4782" font-family="Times,serif" font-size="14.00" fill="#000000">5</text>
</g>
<!-- wygrana\n protagonisty -->
<g id="node23" class="node">
<title>wygrana\n protagonisty</title>
<ellipse fill="none" stroke="#000000" cx="575.4858" cy="-29.4156" rx="63.061" ry="29.3315"/>
<text text-anchor="middle" x="575.4858" y="-33.6156" font-family="Times,serif" font-size="14.00" fill="#000000">wygrana</text>
<text text-anchor="middle" x="575.4858" y="-16.8156" font-family="Times,serif" font-size="14.00" fill="#000000"> protagonisty</text>
</g>
<!-- ant; \n 16&#45;&gt;wygrana\n protagonisty -->
<g id="edge42" class="edge">
<title>ant; \n 16-&gt;wygrana\n protagonisty</title>
<path fill="none" stroke="#000000" d="M494.0738,-335.7566C509.9875,-275.8761 546.8758,-137.0706 565.0221,-68.7888"/>
<polygon fill="#000000" stroke="#000000" points="568.4773,-69.4144 567.6632,-58.8509 561.7121,-67.6165 568.4773,-69.4144"/>
<text text-anchor="middle" x="535.9858" y="-192.6626" font-family="Times,serif" font-size="14.00" fill="#000000">6</text>
</g>
<!-- ant; \n 17&#45;&gt;remis -->
<g id="edge43" class="edge">
<title>ant; \n 17-&gt;remis</title>
<path fill="none" stroke="#000000" d="M567.7943,-239.5754C551.7589,-230.8489 531.0842,-218.5707 514.4858,-205.2626 499.724,-193.427 485.0602,-178.1336 473.8105,-165.4406"/>
<polygon fill="#000000" stroke="#000000" points="476.1449,-162.7908 466.9442,-157.5375 470.8607,-167.3819 476.1449,-162.7908"/>
<text text-anchor="middle" x="517.9858" y="-192.6626" font-family="Times,serif" font-size="14.00" fill="#000000">4</text>
</g>
<!-- ant; \n 17&#45;&gt;wygrana\n protagonisty -->
<g id="edge44" class="edge">
<title>ant; \n 17-&gt;wygrana\n protagonisty</title>
<path fill="none" stroke="#000000" d="M591.0955,-223.0307C587.8994,-183.3881 582.2248,-113.0032 578.6692,-68.901"/>
<polygon fill="#000000" stroke="#000000" points="582.1496,-68.5166 577.8572,-58.8302 575.1723,-69.0792 582.1496,-68.5166"/>
<text text-anchor="middle" x="589.9858" y="-136.8469" font-family="Times,serif" font-size="14.00" fill="#000000">5</text>
</g>
<!-- ant; \n 17&#45;&gt;wygrana\n protagonisty -->
<g id="edge45" class="edge">
<title>ant; \n 17-&gt;wygrana\n protagonisty</title>
<path fill="none" stroke="#000000" d="M599.8295,-223.9659C600.935,-217.8245 601.9129,-211.3523 602.4858,-205.2626 607.8446,-148.2935 606.2189,-132.6171 593.4858,-76.8313 592.8119,-73.8791 591.9943,-70.8644 591.0836,-67.8572"/>
<polygon fill="#000000" stroke="#000000" points="594.4022,-66.7448 587.9206,-58.364 587.7612,-68.9576 594.4022,-66.7448"/>
<text text-anchor="middle" x="607.9858" y="-136.8469" font-family="Times,serif" font-size="14.00" fill="#000000">6</text>
</g>
<!-- ant; \n 18&#45;&gt;wygrana\n protagonisty -->
<g id="edge46" class="edge">
<title>ant; \n 18-&gt;wygrana\n protagonisty</title>
<path fill="none" stroke="#000000" d="M654.3839,-117.8006C644.5788,-105.4396 632.1201,-90.0972 620.4858,-76.8313 616.791,-72.6184 612.8475,-68.2667 608.8886,-63.9866"/>
<polygon fill="#000000" stroke="#000000" points="611.184,-61.3169 601.7965,-56.405 606.0719,-66.0989 611.184,-61.3169"/>
<text text-anchor="middle" x="636.9858" y="-81.0313" font-family="Times,serif" font-size="14.00" fill="#000000">4</text>
</g>
<!-- ant; \n 18&#45;&gt;wygrana\n protagonisty -->
<g id="edge47" class="edge">
<title>ant; \n 18-&gt;wygrana\n protagonisty</title>
<path fill="none" stroke="#000000" d="M663.9832,-112.6016C659.4839,-100.6993 653.0786,-87.2436 644.4858,-76.8313 638.9002,-70.063 632.1114,-63.8498 624.9976,-58.3065"/>
<polygon fill="#000000" stroke="#000000" points="626.6843,-55.2033 616.55,-52.1136 622.5456,-60.8488 626.6843,-55.2033"/>
<text text-anchor="middle" x="657.9858" y="-81.0313" font-family="Times,serif" font-size="14.00" fill="#000000">5</text>
</g>
<!-- ant; \n 18&#45;&gt;wygrana\n protagonisty -->
<g id="edge48" class="edge">
<title>ant; \n 18-&gt;wygrana\n protagonisty</title>
<path fill="none" stroke="#000000" d="M675.0016,-111.5171C674.6071,-99.8402 672.297,-86.8464 665.4858,-76.8313 658.2759,-66.23 647.9179,-57.8284 636.7771,-51.2313"/>
<polygon fill="#000000" stroke="#000000" points="638.1789,-48.01 627.7197,-46.32 634.8421,-54.1636 638.1789,-48.01"/>
<text text-anchor="middle" x="674.9858" y="-81.0313" font-family="Times,serif" font-size="14.00" fill="#000000">6</text>
</g>
<!-- prot; \n 16&#45;&gt;remis -->
<g id="edge50" class="edge">
<title>prot; \n 16-&gt;remis</title>
<path fill="none" stroke="#000000" d="M56.5767,-232.5667C62.1526,-228.8632 68.28,-225.4728 74.4858,-223.2626 177.3392,-186.6297 216.2838,-240.9017 319.4858,-205.2626 332.1394,-200.8929 332.7441,-194.8923 344.4858,-188.4626 367.8734,-175.6554 395.4202,-163.6973 416.9695,-154.9939"/>
<polygon fill="#000000" stroke="#000000" points="418.4172,-158.1847 426.4121,-151.2326 415.8268,-151.6817 418.4172,-158.1847"/>
<text text-anchor="middle" x="347.9858" y="-192.6626" font-family="Times,serif" font-size="14.00" fill="#000000">5</text>
</g>
<!-- ant; \n 20 -->
<g id="node24" class="node">
<title>ant; \n 20</title>
<ellipse fill="none" stroke="#000000" cx="132.4858" cy="-141.0469" rx="28.7703" ry="29.3315"/>
<text text-anchor="middle" x="132.4858" y="-145.2469" font-family="Times,serif" font-size="14.00" fill="#000000">ant; </text>
<text text-anchor="middle" x="132.4858" y="-128.4469" font-family="Times,serif" font-size="14.00" fill="#000000"> 20</text>
</g>
<!-- prot; \n 16&#45;&gt;ant; \n 20 -->
<g id="edge49" class="edge">
<title>prot; \n 16-&gt;ant; \n 20</title>
<path fill="none" stroke="#000000" d="M15.9092,-226.9973C10.1173,-214.5562 6.7703,-199.8778 14.4858,-188.4626 32.0809,-162.4298 66.5817,-150.6876 93.7534,-145.3926"/>
<polygon fill="#000000" stroke="#000000" points="94.5006,-148.8154 103.7579,-143.6625 93.3077,-141.9178 94.5006,-148.8154"/>
<text text-anchor="middle" x="17.9858" y="-192.6626" font-family="Times,serif" font-size="14.00" fill="#000000">4</text>
</g>
<!-- wygrana\n antaginisty -->
<g id="node25" class="node">
<title>wygrana\n antaginisty</title>
<ellipse fill="none" stroke="#000000" cx="236.4858" cy="-141.0469" rx="57.462" ry="29.3315"/>
<text text-anchor="middle" x="236.4858" y="-145.2469" font-family="Times,serif" font-size="14.00" fill="#000000">wygrana</text>
<text text-anchor="middle" x="236.4858" y="-128.4469" font-family="Times,serif" font-size="14.00" fill="#000000"> antaginisty</text>
</g>
<!-- prot; \n 16&#45;&gt;wygrana\n antaginisty -->
<g id="edge51" class="edge">
<title>prot; \n 16-&gt;wygrana\n antaginisty</title>
<path fill="none" stroke="#000000" d="M38.0889,-223.5238C41.998,-210.8961 48.5565,-197.064 59.4858,-188.4626 98.7594,-157.5537 122.5951,-184.7545 170.4858,-170.4626 175.3937,-168.9979 180.4149,-167.2522 185.3884,-165.3524"/>
<polygon fill="#000000" stroke="#000000" points="186.8824,-168.524 194.8516,-161.5424 184.268,-162.0305 186.8824,-168.524"/>
<text text-anchor="middle" x="62.9858" y="-192.6626" font-family="Times,serif" font-size="14.00" fill="#000000">6</text>
</g>
<!-- prot; \n 17&#45;&gt;remis -->
<g id="edge52" class="edge">
<title>prot; \n 17-&gt;remis</title>
<path fill="none" stroke="#000000" d="M139.6109,-232.6613C145.1847,-228.9519 151.3026,-225.5352 157.4858,-223.2626 237.9314,-193.6945 268.7586,-234.0534 349.4858,-205.2626 362.0947,-200.7657 363.1874,-195.6428 374.4858,-188.4626 390.026,-178.5865 407.5634,-168.0053 422.1599,-159.3499"/>
<polygon fill="#000000" stroke="#000000" points="423.9934,-162.332 430.8241,-154.2331 420.4338,-156.3046 423.9934,-162.332"/>
<text text-anchor="middle" x="377.9858" y="-192.6626" font-family="Times,serif" font-size="14.00" fill="#000000">4</text>
</g>
<!-- prot; \n 17&#45;&gt;wygrana\n antaginisty -->
<g id="edge53" class="edge">
<title>prot; \n 17-&gt;wygrana\n antaginisty</title>
<path fill="none" stroke="#000000" d="M90.2641,-233.5647C75.8405,-220.3264 62.744,-202.6105 74.4858,-188.4626 102.2091,-155.058 129.0441,-183.3868 170.4858,-170.4626 175.3753,-168.9377 180.384,-167.151 185.3494,-165.2248"/>
<polygon fill="#000000" stroke="#000000" points="186.8574,-168.39 194.8023,-161.3808 184.2204,-161.9056 186.8574,-168.39"/>
<text text-anchor="middle" x="77.9858" y="-192.6626" font-family="Times,serif" font-size="14.00" fill="#000000">5</text>
</g>
<!-- prot; \n 17&#45;&gt;wygrana\n antaginisty -->
<g id="edge54" class="edge">
<title>prot; \n 17-&gt;wygrana\n antaginisty</title>
<path fill="none" stroke="#000000" d="M111.7842,-223.3664C111.8093,-211.452 113.9735,-198.2232 121.4858,-188.4626 135.6363,-170.0769 148.9891,-179.1899 170.4858,-170.4626 174.9717,-168.6413 179.6051,-166.7007 184.2395,-164.718"/>
<polygon fill="#000000" stroke="#000000" points="185.9238,-167.8027 193.7068,-160.6141 183.1397,-161.3801 185.9238,-167.8027"/>
<text text-anchor="middle" x="124.9858" y="-192.6626" font-family="Times,serif" font-size="14.00" fill="#000000">6</text>
</g>
<!-- prot; \n 18&#45;&gt;wygrana\n antaginisty -->
<g id="edge55" class="edge">
<title>prot; \n 18-&gt;wygrana\n antaginisty</title>
<path fill="none" stroke="#000000" d="M172.7349,-234.4091C155.4371,-222.0064 135.5977,-207.4702 134.4858,-205.2626 131.127,-198.594 130.4702,-194.7575 134.4858,-188.4626 135.3006,-187.1852 159.3106,-175.9968 183.8284,-164.81"/>
<polygon fill="#000000" stroke="#000000" points="185.551,-167.8715 193.2027,-160.5433 182.6511,-161.5004 185.551,-167.8715"/>
<text text-anchor="middle" x="137.9858" y="-192.6626" font-family="Times,serif" font-size="14.00" fill="#000000">4</text>
</g>
<!-- prot; \n 18&#45;&gt;wygrana\n antaginisty -->
<g id="edge56" class="edge">
<title>prot; \n 18-&gt;wygrana\n antaginisty</title>
<path fill="none" stroke="#000000" d="M175.7414,-231.2315C165.3266,-218.7313 156.8266,-202.6774 164.4858,-188.4626 169.2247,-179.6675 176.3874,-172.2353 184.3877,-166.0532"/>
<polygon fill="#000000" stroke="#000000" points="186.4338,-168.8932 192.6084,-160.2836 182.4125,-163.1635 186.4338,-168.8932"/>
<text text-anchor="middle" x="167.9858" y="-192.6626" font-family="Times,serif" font-size="14.00" fill="#000000">5</text>
</g>
<!-- prot; \n 18&#45;&gt;wygrana\n antaginisty -->
<g id="edge57" class="edge">
<title>prot; \n 18-&gt;wygrana\n antaginisty</title>
<path fill="none" stroke="#000000" d="M191.6512,-223.777C190.2518,-212.4461 190.2875,-199.5337 194.4858,-188.4626 196.3153,-183.6378 198.8852,-178.9888 201.8625,-174.6132"/>
<polygon fill="#000000" stroke="#000000" points="204.722,-176.6354 208.0027,-166.5613 199.1558,-172.3907 204.722,-176.6354"/>
<text text-anchor="middle" x="197.9858" y="-192.6626" font-family="Times,serif" font-size="14.00" fill="#000000">6</text>
</g>
<!-- prot; \n 19&#45;&gt;wygrana\n antaginisty -->
<g id="edge58" class="edge">
<title>prot; \n 19-&gt;wygrana\n antaginisty</title>
<path fill="none" stroke="#000000" d="M255.6089,-234.5645C242.2333,-224.5753 227.9833,-212.7214 224.4858,-205.2626 220.7827,-197.3653 220.3875,-188.4176 221.647,-179.7632"/>
<polygon fill="#000000" stroke="#000000" points="225.1047,-180.3315 223.7864,-169.819 218.2613,-178.8591 225.1047,-180.3315"/>
<text text-anchor="middle" x="227.9858" y="-192.6626" font-family="Times,serif" font-size="14.00" fill="#000000">4</text>
</g>
<!-- prot; \n 19&#45;&gt;wygrana\n antaginisty -->
<g id="edge59" class="edge">
<title>prot; \n 19-&gt;wygrana\n antaginisty</title>
<path fill="none" stroke="#000000" d="M265.169,-226.6753C261.3238,-219.8718 257.4782,-212.4308 254.4858,-205.2626 251.1516,-197.2758 248.2299,-188.4782 245.764,-180.0242"/>
<polygon fill="#000000" stroke="#000000" points="249.121,-179.0318 243.0813,-170.327 242.3744,-180.8982 249.121,-179.0318"/>
<text text-anchor="middle" x="257.9858" y="-192.6626" font-family="Times,serif" font-size="14.00" fill="#000000">5</text>
</g>
<!-- prot; \n 19&#45;&gt;wygrana\n antaginisty -->
<g id="edge60" class="edge">
<title>prot; \n 19-&gt;wygrana\n antaginisty</title>
<path fill="none" stroke="#000000" d="M272.5794,-224.2699C268.8346,-213.007 264.2448,-200.0123 259.4858,-188.4626 258.1738,-185.2785 256.7503,-182.0056 255.2766,-178.739"/>
<polygon fill="#000000" stroke="#000000" points="258.4305,-177.2205 251.041,-169.6281 252.0829,-180.1716 258.4305,-177.2205"/>
<text text-anchor="middle" x="268.9858" y="-192.6626" font-family="Times,serif" font-size="14.00" fill="#000000">6</text>
</g>
<!-- prot; \n 20&#45;&gt;wygrana\n antaginisty -->
<g id="edge61" class="edge">
<title>prot; \n 20-&gt;wygrana\n antaginisty</title>
<path fill="none" stroke="#000000" d="M404.9957,-228.734C412.9981,-215.8787 418.5087,-200.2912 409.4858,-188.4626 396.1685,-171.0042 345.0297,-158.3922 301.7777,-150.5848"/>
<polygon fill="#000000" stroke="#000000" points="302.2887,-147.1212 291.8355,-148.8478 301.0839,-154.0167 302.2887,-147.1212"/>
<text text-anchor="middle" x="416.9858" y="-192.6626" font-family="Times,serif" font-size="14.00" fill="#000000">4</text>
</g>
<!-- prot; \n 20&#45;&gt;wygrana\n antaginisty -->
<g id="edge62" class="edge">
<title>prot; \n 20-&gt;wygrana\n antaginisty</title>
<path fill="none" stroke="#000000" d="M358.7522,-235.7297C345.2585,-226.9488 328.7654,-215.8675 314.4858,-205.2626 300.8418,-195.1297 286.3526,-183.4684 273.6123,-172.887"/>
<polygon fill="#000000" stroke="#000000" points="275.8453,-170.1918 265.9289,-166.4615 271.3547,-175.5616 275.8453,-170.1918"/>
<text text-anchor="middle" x="317.9858" y="-192.6626" font-family="Times,serif" font-size="14.00" fill="#000000">5</text>
</g>
<!-- prot; \n 20&#45;&gt;wygrana\n antaginisty -->
<g id="edge63" class="edge">
<title>prot; \n 20-&gt;wygrana\n antaginisty</title>
<path fill="none" stroke="#000000" d="M389.3382,-223.2484C389.3386,-211.314 387.1526,-198.1022 379.4858,-188.4626 368.9648,-175.2343 332.6196,-163.2776 299.2066,-154.6801"/>
<polygon fill="#000000" stroke="#000000" points="299.9755,-151.2647 289.4252,-152.2343 298.2774,-158.0556 299.9755,-151.2647"/>
<text text-anchor="middle" x="389.9858" y="-192.6626" font-family="Times,serif" font-size="14.00" fill="#000000">6</text>
</g>
<!-- ant; \n 20&#45;&gt;wygrana\n protagonisty -->
<g id="edge64" class="edge">
<title>ant; \n 20-&gt;wygrana\n protagonisty</title>
<path fill="none" stroke="#000000" d="M154.2974,-121.5093C159.3413,-117.7701 164.881,-114.22 170.4858,-111.6313 279.4381,-61.3075 418.9222,-41.6463 502.5218,-34.0627"/>
<polygon fill="#000000" stroke="#000000" points="503.0267,-37.532 512.6844,-33.1755 502.4179,-30.5586 503.0267,-37.532"/>
<text text-anchor="middle" x="257.9858" y="-81.0313" font-family="Times,serif" font-size="14.00" fill="#000000">4</text>
</g>
<!-- ant; \n 20&#45;&gt;wygrana\n protagonisty -->
<g id="edge65" class="edge">
<title>ant; \n 20-&gt;wygrana\n protagonisty</title>
<path fill="none" stroke="#000000" d="M154.2598,-121.4267C159.306,-117.6926 164.8562,-114.1656 170.4858,-111.6313 209.6716,-93.9908 223.3331,-101.99 265.4858,-93.6313 348.984,-77.074 444.9154,-57.0468 507.6745,-43.8085"/>
<polygon fill="#000000" stroke="#000000" points="508.7783,-47.1527 517.8396,-41.6625 507.3323,-40.3037 508.7783,-47.1527"/>
<text text-anchor="middle" x="344.9858" y="-81.0313" font-family="Times,serif" font-size="14.00" fill="#000000">5</text>
</g>
<!-- ant; \n 20&#45;&gt;wygrana\n protagonisty -->
<g id="edge66" class="edge">
<title>ant; \n 20-&gt;wygrana\n protagonisty</title>
<path fill="none" stroke="#000000" d="M154.0978,-121.0446C159.1542,-117.3343 164.7494,-113.9136 170.4858,-111.6313 246.0111,-81.5825 272.657,-108.9408 352.4858,-93.6313 408.2156,-82.9435 470.125,-64.5778 514.5445,-50.2181"/>
<polygon fill="#000000" stroke="#000000" points="515.8898,-53.4609 524.3125,-47.0338 513.7201,-46.8056 515.8898,-53.4609"/>
<text text-anchor="middle" x="423.9858" y="-81.0313" font-family="Times,serif" font-size="14.00" fill="#000000">6</text>
</g>
</g>
</svg>